<!-- icon666.com - MILLIONS OF FREE VECTOR ICONS --><svg viewBox="0 0 48 48" xmlns="http://www.w3.org/2000/svg" xmlns:xlink="http://www.w3.org/1999/xlink"><linearGradient id="a" gradientUnits="userSpaceOnUse" x1="8.609" x2="40.619" y1="8.609" y2="40.619"><stop offset="0" stop-color="#8cc63f"></stop><stop offset=".217" stop-color="#60b641"></stop><stop offset=".459" stop-color="#37a643"></stop><stop offset=".679" stop-color="#199b44"></stop><stop offset=".867" stop-color="#079445"></stop><stop offset="1" stop-color="#009245"></stop></linearGradient><rect fill="url(#a)" height="40" rx="10" width="40" x="4" y="4"></rect><path d="m33.327 19.478-2.6-2.849a1 1 0 0 0 -1.415-.061l-7.481 6.876a.5.5 0 0 1 -.692-.015l-2.291-2.3a1 1 0 0 0 -1.417 0l-2.731 2.734a1 1 0 0 0 0 1.412l6.257 6.274a.5.5 0 0 0 .692.015l11.616-10.675a1 1 0 0 0 .062-1.411z" fill="#fff" opacity=".9"></path></svg>