<!-- icon666.com - MILLIONS OF FREE VECTOR ICONS --><svg version="1.1" id="Capa_1" xmlns="http://www.w3.org/2000/svg" xmlns:xlink="http://www.w3.org/1999/xlink" x="0px" y="0px" viewBox="0 0 512 512" style="enable-background:new 0 0 512 512;" xml:space="preserve"><path style="fill:#8DD83D;" d="M481.158,10.819c-22.319,0-364.026,0-385.236,0c-6.344,0.197-14.776,2.989-20.856,8.765 c-1.02,1.02-68.64,68.64-68.64,68.64C2.734,91.92,0,98.052,0,105.333c0,25.675,0,348.564,0,365.008 c0,17.003,13.836,30.841,30.842,30.841h450.315c17.005,0,30.843-13.838,30.843-30.841V41.659 C512,24.652,498.163,10.819,481.158,10.819z"></path><path style="fill:#7FC928;" d="M19.926,470.341c0-16.295,0-333.891,0-365.008c0-9.733,4.734-15.361,6.073-16.758 c0.044-0.044,69.042-69.042,68.998-68.998c8.371-8.371,20.85-8.759,20.85-8.759H95.922c-6.344,0.197-14.776,2.989-20.856,8.765 c-1.02,1.02-68.64,68.64-68.64,68.64C2.734,91.92,0,98.052,0,105.333c0,41.859,0,321.075,0,365.008 c0,17.003,13.836,30.841,30.842,30.841h19.926C33.762,501.182,19.926,487.344,19.926,470.341z"></path><path style="fill:#3BBC56;" d="M470.897,46.768c-393.906,0-370.021-0.733-372.264,1.509c-65.591,65.591-62.682,61.768-62.682,64.816 v346.988c0,2.845,2.307,5.151,5.151,5.151h429.795c2.845,0,5.151-2.307,5.151-5.151V51.92 C476.049,49.075,473.742,46.768,470.897,46.768z"></path><path style="fill:#31AA45;" d="M56.893,460.081c0-371.431-0.735-348.386,1.509-350.63c65.591-65.591,61.767-62.682,64.816-62.682 c-22.387,0-22.572-0.503-24.584,1.509c-65.591,65.591-62.682,61.768-62.682,64.816v346.988c0,2.845,2.307,5.151,5.151,5.151h20.942 C59.2,465.232,56.893,462.926,56.893,460.081z"></path><g><path style="fill:#DDDDDD;" d="M178.171,312.056c0-4.267-3.459-7.727-7.727-7.727h-18.798c-4.267,0-7.727,3.459-7.727,7.727v73.773 c0,4.267,3.459,7.727,7.727,7.727c4.267,0,7.727-3.459,7.727-7.727v-66.046h11.071 C174.712,319.783,178.171,316.323,178.171,312.056z"></path><path style="fill:#DDDDDD;" d="M151.646,210.597h18.798c4.267,0,7.727-3.459,7.727-7.727s-3.459-7.727-7.727-7.727h-11.071V126.17 c0-4.267-3.459-7.727-7.727-7.727c-4.267,0-7.727,3.459-7.727,7.727v76.701C143.92,207.138,147.379,210.597,151.646,210.597z"></path><path style="fill:#DDDDDD;" d="M88.258,237.892h82.186c4.267,0,7.727-3.459,7.727-7.727c0-4.267-3.459-7.727-7.727-7.727H95.985 v-36.934c0-4.267-3.459-7.727-7.727-7.727c-4.267,0-7.727,3.459-7.727,7.727v44.661C80.532,234.433,83.991,237.892,88.258,237.892z "></path><path style="fill:#DDDDDD;" d="M170.444,249.736h-18.798c-4.267,0-7.727,3.459-7.727,7.727c0,4.267,3.459,7.727,7.727,7.727h18.798 c4.267,0,7.727-3.459,7.727-7.727C178.171,253.196,174.712,249.736,170.444,249.736z"></path><path style="fill:#DDDDDD;" d="M170.444,277.034h-18.798c-4.267,0-7.727,3.459-7.727,7.727s3.459,7.727,7.727,7.727h18.798 c4.267,0,7.727-3.459,7.727-7.727S174.712,277.034,170.444,277.034z"></path><path style="fill:#DDDDDD;" d="M361.066,304.329h-18.798c-4.267,0-7.727,3.459-7.727,7.727s3.459,7.727,7.727,7.727h18.798 c4.267,0,7.727-3.459,7.727-7.727S365.333,304.329,361.066,304.329z"></path><path style="fill:#DDDDDD;" d="M379.59,162.154v32.99h-37.324c-4.267,0-7.727,3.459-7.727,7.727s3.46,7.727,7.727,7.727h45.051 c4.267,0,7.727-3.459,7.727-7.727v-40.717c0-4.267-3.459-7.727-7.727-7.727C383.05,154.427,379.59,157.886,379.59,162.154z"></path><path style="fill:#DDDDDD;" d="M361.066,222.439h-18.798c-4.267,0-7.727,3.459-7.727,7.727c0,4.267,3.459,7.727,7.727,7.727h18.798 c4.267,0,7.727-3.459,7.727-7.727S365.333,222.439,361.066,222.439z"></path><path style="fill:#DDDDDD;" d="M361.066,249.736h-18.798c-4.267,0-7.727,3.459-7.727,7.727c0,4.267,3.459,7.727,7.727,7.727h18.798 c4.267,0,7.727-3.459,7.727-7.727C368.793,253.196,365.333,249.736,361.066,249.736z"></path><path style="fill:#DDDDDD;" d="M361.066,277.034h-18.798c-4.267,0-7.727,3.459-7.727,7.727s3.459,7.727,7.727,7.727h18.798 c4.267,0,7.727-3.459,7.727-7.727S365.333,277.034,361.066,277.034z"></path><path style="fill:#DDDDDD;" d="M310.949,369.9c4.267,0,7.727-3.46,7.727-7.727v-18.798c0-4.267-3.459-7.727-7.727-7.727 s-7.727,3.459-7.727,7.727v18.798C303.222,366.441,306.682,369.9,310.949,369.9z"></path><path style="fill:#DDDDDD;" d="M201.763,369.9c4.267,0,7.727-3.46,7.727-7.727v-18.798c0-4.267-3.459-7.727-7.727-7.727 s-7.727,3.459-7.727,7.727v18.798C194.036,366.441,197.495,369.9,201.763,369.9z"></path><path style="fill:#DDDDDD;" d="M229.059,369.9c4.267,0,7.727-3.46,7.727-7.727v-18.798c0-4.267-3.46-7.727-7.727-7.727 s-7.727,3.459-7.727,7.727v18.798C221.332,366.441,224.792,369.9,229.059,369.9z"></path><path style="fill:#DDDDDD;" d="M256.355,369.9c4.267,0,7.727-3.46,7.727-7.727v-18.798c0-4.267-3.459-7.727-7.727-7.727 c-4.267,0-7.727,3.459-7.727,7.727v18.798C248.629,366.441,252.088,369.9,256.355,369.9z"></path><path style="fill:#DDDDDD;" d="M283.653,335.649c-4.267,0-7.727,3.459-7.727,7.727v18.798c0,4.267,3.459,7.727,7.727,7.727 s7.727-3.46,7.727-7.727v-18.798C291.38,339.108,287.92,335.649,283.653,335.649z"></path><path style="fill:#DDDDDD;" d="M310.949,179.277c4.267,0,7.727-3.459,7.727-7.727v-18.796c0-4.267-3.459-7.727-7.727-7.727 s-7.727,3.459-7.727,7.727v18.796C303.222,175.818,306.682,179.277,310.949,179.277z"></path><path style="fill:#DDDDDD;" d="M201.763,179.277c4.267,0,7.727-3.459,7.727-7.727v-18.796c0-4.267-3.459-7.727-7.727-7.727 s-7.727,3.459-7.727,7.727v18.796C194.036,175.818,197.495,179.277,201.763,179.277z"></path><path style="fill:#DDDDDD;" d="M229.059,179.277c4.267,0,7.727-3.459,7.727-7.727v-18.796c0-4.267-3.46-7.727-7.727-7.727 s-7.727,3.459-7.727,7.727v18.796C221.332,175.818,224.792,179.277,229.059,179.277z"></path><path style="fill:#DDDDDD;" d="M256.355,179.277c4.267,0,7.727-3.459,7.727-7.727v-18.796c0-4.267-3.459-7.727-7.727-7.727 c-4.267,0-7.727,3.459-7.727,7.727v18.796C248.629,175.818,252.088,179.277,256.355,179.277z"></path><path style="fill:#DDDDDD;" d="M283.653,145.028c-4.267,0-7.727,3.459-7.727,7.727v18.796c0,4.267,3.459,7.727,7.727,7.727 s7.727-3.459,7.727-7.727v-18.796C291.38,148.487,287.92,145.028,283.653,145.028z"></path><path style="fill:#DDDDDD;" d="M310.949,133.896c4.267,0,7.727-3.459,7.727-7.727V115.1h90.085c4.267,0,7.727-3.459,7.727-7.727 c0-4.267-3.459-7.727-7.727-7.727h-97.812c-4.267,0-7.727,3.459-7.727,7.727v18.796 C303.222,130.437,306.682,133.896,310.949,133.896z"></path><path style="fill:#DDDDDD;" d="M201.763,133.896c4.267,0,7.727-3.459,7.727-7.727v-18.796c0-4.267-3.459-7.727-7.727-7.727 s-7.727,3.459-7.727,7.727v18.796C194.036,130.437,197.495,133.896,201.763,133.896z"></path><path style="fill:#DDDDDD;" d="M283.653,99.647c-4.267,0-7.727,3.459-7.727,7.727v18.796c0,4.267,3.459,7.727,7.727,7.727 s7.727-3.459,7.727-7.727v-18.796C291.38,103.106,287.92,99.647,283.653,99.647z"></path><path style="fill:#DDDDDD;" d="M229.059,133.896c4.267,0,7.727-3.459,7.727-7.727v-18.796c0-4.267-3.46-7.727-7.727-7.727 s-7.727,3.459-7.727,7.727v18.796C221.332,130.437,224.792,133.896,229.059,133.896z"></path><path style="fill:#DDDDDD;" d="M341.866,396.9h-23.19v-11.071c0-4.267-3.459-7.727-7.727-7.727s-7.727,3.459-7.727,7.727v18.798 c0,4.267,3.459,7.727,7.727,7.727h30.916c4.267,0,7.727-3.459,7.727-7.727S346.133,396.9,341.866,396.9z"></path><path style="fill:#DDDDDD;" d="M283.653,378.102c-4.267,0-7.727,3.459-7.727,7.727V396.9h-11.844v-11.071 c0-4.267-3.459-7.727-7.727-7.727c-4.267,0-7.727,3.459-7.727,7.727V396.9h-11.843v-11.071c0-4.267-3.46-7.727-7.727-7.727 s-7.727,3.459-7.727,7.727V396.9h-51.667c-4.267,0-7.727,3.459-7.727,7.727s3.459,7.727,7.727,7.727h113.987 c4.267,0,7.727-3.459,7.727-7.727v-18.798C291.38,381.562,287.92,378.102,283.653,378.102z"></path><path style="fill:#DDDDDD;" d="M423.742,250.177h-36.423c-4.267,0-7.727,3.459-7.727,7.727c0,4.267,3.459,7.727,7.727,7.727h28.696 v11.403h-28.696c-4.267,0-7.727,3.459-7.727,7.727s3.459,7.727,7.727,7.727h28.696v11.842h-28.696 c-4.267,0-7.727,3.459-7.727,7.727s3.459,7.727,7.727,7.727h28.696v42.391c0,4.267,3.459,7.727,7.727,7.727s7.727-3.46,7.727-7.727 v-104.27C431.468,253.636,428.009,250.177,423.742,250.177z"></path><path style="fill:#DDDDDD;" d="M423.742,114.626c-4.267,0-7.727,3.459-7.727,7.727v100.086h-28.696 c-4.267,0-7.727,3.459-7.727,7.727c0,4.267,3.459,7.727,7.727,7.727h36.423c4.267,0,7.727-3.459,7.727-7.727V122.352 C431.468,118.085,428.009,114.626,423.742,114.626z"></path><path style="fill:#DDDDDD;" d="M122.036,277.034H95.985V265.19h26.05c4.267,0,7.727-3.459,7.727-7.727 c0-4.267-3.459-7.727-7.727-7.727H88.257c-4.267,0-7.727,3.459-7.727,7.727c0,0.01,0.002,0.02,0.002,0.03v27.267v77.413 c0,4.267,3.459,7.727,7.727,7.727c4.267,0,7.727-3.46,7.727-7.727v-69.686h26.051c4.267,0,7.727-3.459,7.727-7.727 S126.303,277.034,122.036,277.034z"></path></g><g><path style="fill:#F2D422;" d="M423.742,130.079c-12.521,0-22.708-10.186-22.708-22.706c0-12.521,10.187-22.708,22.708-22.708 s22.708,10.187,22.708,22.708C446.449,119.894,436.262,130.079,423.742,130.079z M423.742,100.12c-4,0-7.254,3.254-7.254,7.254 c0,3.999,3.254,7.252,7.254,7.252s7.254-3.253,7.254-7.252C430.996,103.374,427.741,100.12,423.742,100.12z"></path><path style="fill:#F2D422;" d="M151.646,130.079c-12.52,0-22.707-10.186-22.707-22.706c0-12.521,10.186-22.708,22.707-22.708 s22.708,10.187,22.708,22.708S164.167,130.079,151.646,130.079z M151.646,100.12c-3.999,0-7.253,3.254-7.253,7.254 c0,3.999,3.254,7.252,7.253,7.252c4,0,7.254-3.253,7.254-7.252C158.9,103.374,155.646,100.12,151.646,100.12z"></path><path style="fill:#F2D422;" d="M88.258,190.441c-12.521,0-22.707-10.186-22.707-22.706c0-12.521,10.186-22.708,22.707-22.708 c12.52,0,22.707,10.187,22.707,22.708C110.965,180.255,100.779,190.441,88.258,190.441z M88.258,160.481 c-4,0-7.254,3.254-7.254,7.254c0,3.999,3.254,7.252,7.254,7.252c3.999,0,7.253-3.253,7.253-7.252 C95.511,163.736,92.257,160.481,88.258,160.481z"></path><path style="fill:#F2D422;" d="M88.258,399.86c-12.521,0-22.707-10.186-22.707-22.706c0-12.521,10.186-22.708,22.707-22.708 c12.52,0,22.707,10.187,22.707,22.708C110.965,389.674,100.779,399.86,88.258,399.86z M88.258,369.9c-4,0-7.254,3.254-7.254,7.254 c0,3.999,3.254,7.252,7.254,7.252c3.999,0,7.253-3.253,7.253-7.252C95.511,373.155,92.257,369.9,88.258,369.9z"></path><path style="fill:#F2D422;" d="M423.742,399.86c-12.521,0-22.708-10.186-22.708-22.706c0-12.521,10.187-22.708,22.708-22.708 s22.708,10.187,22.708,22.708C446.449,389.674,436.262,399.86,423.742,399.86z M423.742,369.9c-4,0-7.254,3.254-7.254,7.254 c0,3.999,3.254,7.252,7.254,7.252s7.254-3.253,7.254-7.252C430.996,373.155,427.741,369.9,423.742,369.9z"></path><path style="fill:#F2D422;" d="M151.646,427.332c-12.52,0-22.707-10.186-22.707-22.706c0-12.521,10.186-22.708,22.707-22.708 s22.708,10.187,22.708,22.708S164.167,427.332,151.646,427.332z M151.646,397.373c-3.999,0-7.253,3.254-7.253,7.254 c0,3.999,3.254,7.252,7.253,7.252c4,0,7.254-3.253,7.254-7.252C158.9,400.627,155.646,397.373,151.646,397.373z"></path><path style="fill:#F2D422;" d="M387.317,166.502c-12.52,0-22.706-10.187-22.706-22.708s10.186-22.708,22.706-22.708 c12.521,0,22.708,10.187,22.708,22.708S399.838,166.502,387.317,166.502z M387.317,136.54c-3.999,0-7.252,3.254-7.252,7.254 s3.253,7.254,7.252,7.254c4,0,7.254-3.254,7.254-7.254S391.317,136.54,387.317,136.54z"></path><path style="fill:#F2D422;" d="M361.066,427.332c-12.521,0-22.708-10.186-22.708-22.706c0-12.521,10.187-22.708,22.708-22.708 c12.52,0,22.706,10.187,22.706,22.708S373.586,427.332,361.066,427.332z M361.066,397.373c-4,0-7.254,3.254-7.254,7.254 c0,3.999,3.254,7.252,7.254,7.252c3.999,0,7.252-3.253,7.252-7.252C368.318,400.627,365.065,397.373,361.066,397.373z"></path></g><path style="fill:#989DA0;" d="M315.87,343.376H196.916c-14.333,0-25.995-11.661-25.995-25.996V198.427 c0-14.335,11.662-25.995,25.995-25.995H315.87c14.333,0,25.995,11.661,25.995,25.995V317.38 C341.866,331.715,330.203,343.376,315.87,343.376z"></path><path style="fill:#585A60;" d="M311.023,300.172c0,6.828-5.535,12.363-12.363,12.363h-84.534c-6.828,0-12.363-5.535-12.363-12.363 v-84.536c0-6.828,5.535-12.363,12.363-12.363h84.534c6.828,0,12.363,5.535,12.363,12.363V300.172z"></path><path style="fill:#838384;" d="M191.484,317.38V198.427c0-14.335,11.662-25.995,25.995-25.995h-20.563 c-14.333,0-25.995,11.661-25.995,25.995V317.38c0,14.335,11.662,25.996,25.995,25.996h20.563 C203.145,343.376,191.484,331.715,191.484,317.38z"></path><path style="fill:#414356;" d="M222.325,300.172v-84.536c0-6.828,5.535-12.363,12.363-12.363h-20.563 c-6.828,0-12.363,5.535-12.363,12.363v84.536c0,6.828,5.535,12.363,12.363,12.363h20.563 C227.86,312.535,222.325,307,222.325,300.172z"></path></svg>