<!-- icon666.com - MILLIONS OF FREE VECTOR ICONS --><svg viewBox="0 0 512 512" xmlns="http://www.w3.org/2000/svg"><g id="Layer_2" data-name="Layer 2"><g id="Numbers"><g id="_64" data-name="64"><rect id="Background" fill="#005cff" height="512" rx="125" width="512"></rect><path d="m512 190.47v196.53a125 125 0 0 1 -125 125h-183l-98.3-98.28-4.44-277.64h139l77.91 77.92 101.63-115.72z" opacity=".25"></path><g id="_64-2" fill="#fff" data-name="64"><path d="m183.55 189.18v-34.18h-59v72.45h77.85l37.8 37.79v110.7l-37.8 37.8h-96.7l-37.8-37.8v-239.86l37.8-37.8h96.75l37.8 37.8v53.1zm-59 167.39h59v-72h-59z"></path><path d="m444.1 341.28h-24.3v72.44h-56.7v-72.44h-104.85v-56.71l104.85-186.29h56.7v186.29h24.3zm-81-56.71v-70.19l-39.6 70.19z"></path></g></g></g></g></svg>