<!-- icon666.com - MILLIONS OF FREE VECTOR ICONS --><svg viewBox="0 0 419.43 512" xmlns="http://www.w3.org/2000/svg"><g id="Layer_2" data-name="Layer 2"><g id="Log_File" data-name="Log File"><path d="m419.43 41v397.9l-.94.94-.93-.94h-71.27v71.26l.94.94-.94.94h-305.29a41 41 0 0 1 -41-41.04v-183l288.5-288h90a41 41 0 0 1 40.93 41z" fill="#e0e0e0"></path><g fill="#484848"><path d="m225.28 465.88h-183.28a5.1 5.1 0 0 1 0-10.2h183.28a5.1 5.1 0 1 1 0 10.2z"></path><path d="m377.43 397.62h-335.43a5.1 5.1 0 0 1 0-10.2h335.43a5.1 5.1 0 0 1 0 10.2z"></path><path d="m377.43 329.35h-335.43a5.1 5.1 0 1 1 0-10.2h335.43a5.1 5.1 0 0 1 0 10.2z"></path><path d="m377.43 261.09h-335.43a5.1 5.1 0 0 1 0-10.2h335.43a5.1 5.1 0 0 1 0 10.2z"></path><path d="m376.8 192.83h-276.1a5.1 5.1 0 0 1 0-10.2h276.1a5.1 5.1 0 0 1 0 10.2z"></path><path d="m376.8 124.56h-207.68a5.1 5.1 0 1 1 0-10.2h207.68a5.1 5.1 0 0 1 0 10.2z"></path></g><path d="m418.49 439.8-71.26 71.26-.94-.94v-71.26h71.27z" fill="#eef2f5"></path><path d="m288.5 0-288.5 288v-130.3l157.31-157.7zm-171.58 141.33a25 25 0 1 0 -35.33 0 25 25 0 0 0 35.33 0z" fill="#16a53d"></path><circle cx="99.26" cy="123.67" fill="#16a53d" r="24.98"></circle><path d="m157.31 0-157.31 157.7v-116.7a41 41 0 0 1 41-41z" fill="#e0e0e0"></path><path d="m73.62 189.68a5.08 5.08 0 0 1 -3.62-1.49l-35.3-35.3a5.1 5.1 0 1 1 7.21-7.21l31.74 31.72c2.38-2.39 5.67-5.69 8.71-8.77a5.1 5.1 0 0 1 7.26 7.17c-12.23 12.36-12.62 12.63-13.05 12.94a5 5 0 0 1 -2.95.94z" fill="#eef2f5"></path><path d="m152 101a30.07 30.07 0 0 1 -5.73-59.59 5.1 5.1 0 1 1 1.93 10 19.88 19.88 0 1 0 17.85 33.59c7-7 5.27-15.4.86-21.77l-6.63 6.64a5.1 5.1 0 0 1 -7.22-7.21l10.57-10.57a5.13 5.13 0 0 1 3.61-1.49 5.1 5.1 0 0 1 3.6 1.49c12.51 12.53 13.51 29 2.42 40.12a30 30 0 0 1 -21.26 8.79z" fill="#eef2f5"></path><path d="m99.26 153.75a30.08 30.08 0 1 1 21.27-8.81 29.89 29.89 0 0 1 -21.27 8.81zm0-50a19.89 19.89 0 1 0 14.06 5.83 19.78 19.78 0 0 0 -14.06-5.79z" fill="#eef2f5"></path></g></g></svg>