<!-- icon666.com - MILLIONS OF FREE VECTOR ICONS --><svg viewBox="0 0 512 512" xmlns="http://www.w3.org/2000/svg"><path d="m354.667969 314.667969 58.664062-58.667969-58.664062-58.667969zm0 0" fill="#42a5f5"></path><path d="m16 133.332031h480v245.335938h-480zm0 0" fill="#42a5f5"></path><path d="m453.332031 512h-394.664062c-32.363281 0-58.667969-26.304688-58.667969-58.667969v-394.664062c0-32.363281 26.304688-58.667969 58.667969-58.667969h394.664062c32.363281 0 58.667969 26.304688 58.667969 58.667969v394.664062c0 32.363281-26.304688 58.667969-58.667969 58.667969zm-394.664062-480c-14.699219 0-26.667969 11.96875-26.667969 26.667969v394.664062c0 14.699219 11.96875 26.667969 26.667969 26.667969h394.664062c14.699219 0 26.667969-11.96875 26.667969-26.667969v-394.664062c0-14.699219-11.96875-26.667969-26.667969-26.667969zm0 0"></path><path d="m496 394.667969h-480c-8.832031 0-16-7.167969-16-16s7.167969-16 16-16h480c8.832031 0 16 7.167969 16 16s-7.167969 16-16 16zm0 0"></path><path d="m496 149.332031h-480c-8.832031 0-16-7.167969-16-16s7.167969-16 16-16h480c8.832031 0 16 7.167969 16 16s-7.167969 16-16 16zm0 0"></path><path d="m352 272h-250.667969c-8.832031 0-16-7.167969-16-16s7.167969-16 16-16h250.667969c8.832031 0 16 7.167969 16 16s-7.167969 16-16 16zm0 0"></path><path d="m352 330.667969c-2.070312 0-4.136719-.40625-6.121094-1.21875-5.976562-2.472657-9.878906-8.320313-9.878906-14.78125v-117.335938c0-6.460937 3.902344-12.308593 9.878906-14.78125 5.992188-2.476562 12.882813-1.109375 17.429688 3.476563l58.664062 58.664062c6.25 6.253906 6.25 16.386719 0 22.636719l-58.664062 58.667969c-3.050782 3.050781-7.148438 4.671875-11.308594 4.671875zm16-94.699219v40.085938l20.03125-20.054688zm0 0"></path><path d="m256 149.332031c-8.832031 0-16-7.167969-16-16v-117.332031c0-8.832031 7.167969-16 16-16s16 7.167969 16 16v117.332031c0 8.832031-7.167969 16-16 16zm0 0"></path><path d="m256 512c-8.832031 0-16-7.167969-16-16v-117.332031c0-8.832031 7.167969-16 16-16s16 7.167969 16 16v117.332031c0 8.832031-7.167969 16-16 16zm0 0"></path></svg>