<svg version="1.1" id="Layer_1" xmlns="http://www.w3.org/2000/svg" xmlns:xlink="http://www.w3.org/1999/xlink" x="0px" y="0px" viewBox="0 0 512 512" style="enable-background:new 0 0 512 512;" xml:space="preserve"><g><g><g><path d="M443.536,141.584L312.208,4.912C309.184,1.776,305.024,0,300.672,0H80c-8.848,0-16,7.168-16,16v480 c0,8.832,7.152,16,16,16h352c8.848,0,16-7.168,16-16V152.672C448,148.544,446.4,144.56,443.536,141.584z M304,42.56L401.488,144 H304V42.56z M416,480H96V32h176v128c0,8.832,7.152,16,16,16h128V480z" fill="#000000" style="fill: rgb(255, 110, 0);"></path><path d="M193.632,304.064l-25.28,0.064l-28.832-0.064c0,0-0.016,0-0.032,0c-2.112,0-4.144,0.832-5.648,2.336 c-1.52,1.504-2.352,3.552-2.352,5.664c0,11.024-0.352,26.528-1.072,46.48c-0.72,19.984-1.504,36.272-2.384,48.896 c-0.16,2.224,0.624,4.4,2.144,6.016c1.488,1.616,3.6,2.544,5.824,2.544h0.016l29.696-0.064L189.984,416c0.016,0,0.016,0,0.032,0 c2.112,0,4.144-0.832,5.648-2.336c1.52-1.504,2.352-3.552,2.352-5.664c0-1.168,0.112-2.496,0.304-4 c0.304-2.352-0.464-4.704-2.08-6.448c-1.632-1.728-3.568-2.624-6.304-2.544c-5.088,0.288-9.12,0.448-12.128,0.512 c-2.992,0.08-8.336,0.112-16,0.112l-11.632-0.032l0.88-26.368c5.104-0.064,8.704-0.096,10.768-0.096l26.128,0.208 c0.016,0,0.048,0,0.064,0c4.336,0,7.872-3.44,8-7.776c0.032-1.376,0.128-2.656,0.288-3.808c0.304-2.304-0.4-4.624-1.952-6.368 c-1.552-1.728-4.128-3.04-6.096-2.688c-10.112,0.144-18.624,0.208-25.52,0.208c-3.44,0-7.072-0.016-10.912-0.064l0.848-24.528 c4.736-0.016,10.464-0.016,17.2-0.016l10.4,0.032c3.152,0.016,5.376,0.08,6.848,0.24l5.552,0.464 c2.208,0.256,4.448-0.56,6.08-2.08c1.664-1.52,2.592-3.648,2.592-5.888c0-1.216,0.08-2.624,0.24-4.192 c0.24-2.256-0.496-4.496-2.032-6.176C198.032,305.024,195.872,304.064,193.632,304.064z" fill="#000000" style="fill: rgb(255, 110, 0);"></path><path d="M279.92,307.552c-1.408,2.096-2.432,3.632-3.136,4.592l-21.952,28.16l-13.376-19.76l-8-12.736 c-1.536-2.432-3.984-4.016-7.12-3.728l-3.152,0.064l-3.264-0.064c-2.976-0.24-5.824,1.456-7.296,4.064 c-1.488,2.624-1.36,5.84,0.304,8.336l27.856,41.984c-18.144,23.888-29.392,38.432-34.352,44.432c-2,2.432-2.4,5.824-1.008,8.656 c1.408,2.832,3.856,4.624,7.52,4.432l3.184-0.064l3.168,0.08c2.832,0.32,5.264-1.136,6.832-3.328l27.232-35.568 c5.904,8.608,10.24,15.008,13.008,19.232c3.616,5.504,6.96,10.768,10,15.808c1.52,2.512,4.4,4.128,7.168,3.856l3.2-0.064 l3.152,0.064c0.112,0,0.224,0,0.336,0c2.896,0,5.568-1.552,6.976-4.08c1.488-2.624,1.36-5.84-0.32-8.352l-19.6-29.392 c-3.712-5.536-7.04-10.56-9.968-15.072l32.624-42.112c1.872-2.416,2.224-5.68,0.88-8.416c-1.344-2.736-4.144-4.48-7.184-4.48 l-6.72-0.096C284.288,303.84,281.488,305.232,279.92,307.552z" fill="#000000" style="fill: rgb(255, 110, 0);"></path><path d="M318.368,416l29.712-0.064L372.352,416c0.016,0,0.016,0,0.032,0c2.112,0,4.144-0.832,5.648-2.336 c1.52-1.504,2.352-3.552,2.352-5.664c0-1.168,0.112-2.496,0.304-4c0.304-2.352-0.464-4.704-2.08-6.448 c-1.632-1.728-3.616-2.624-6.304-2.544c-5.088,0.288-9.12,0.448-12.128,0.512c-2.992,0.08-8.32,0.112-16,0.112L332.56,395.6 l0.864-26.368c5.104-0.064,8.704-0.096,10.768-0.096l26.128,0.208c0.016,0,0.048,0,0.064,0c4.336,0,7.872-3.44,8-7.776 c0.032-1.376,0.128-2.656,0.288-3.808c0.304-2.304-0.4-4.624-1.952-6.368c-1.536-1.728-3.808-3.04-6.096-2.688 c-10.112,0.144-18.624,0.208-25.52,0.208c-3.44,0-7.056-0.016-10.912-0.064l0.864-24.528c4.72-0.016,10.448-0.016,17.184-0.016 l10.4,0.032c3.168,0.016,5.392,0.08,6.864,0.24l5.536,0.464c2.24,0.256,4.448-0.56,6.08-2.08c1.664-1.52,2.592-3.648,2.592-5.888 c0-1.216,0.08-2.624,0.24-4.192c0.24-2.256-0.496-4.496-2.032-6.176c-1.52-1.664-3.664-2.624-5.92-2.624h-0.016l-25.248,0.064 l-28.848-0.064c0,0-0.016,0-0.032,0c-2.112,0-4.144,0.832-5.648,2.336c-1.52,1.504-2.352,3.552-2.352,5.664 c0,11.024-0.352,26.528-1.072,46.48c-0.704,19.984-1.488,36.256-2.384,48.88c-0.16,2.224,0.624,4.4,2.144,6.032 C314.048,415.072,316.16,416,318.368,416z" fill="#000000" style="fill: rgb(255, 110, 0);"></path></g></g></g></svg>