<svg xmlns="http://www.w3.org/2000/svg" viewBox="0 0 612 612"><defs><mask id="cut-pencil"><rect width="100%" height="100%" fill="#fff"/><g transform="translate(385,385) scale(10)" fill="#000"><path d="M12.49 2.911c.069-.094.431-.321.662-.052l3.537 3.54c.196.195.196.512 0 .708L6.689 17.107a.99.99 0 0 1-.224.13l-5 1.5c-.369.112-.72-.217-.633-.592l1.5-5a.99.99 0 0 1 .13-.224L12.49 2.911z"/></g></mask></defs><g mask="url(#cut-pencil)"><path fill="#D41C1C" d="M460.537 373.781c-65.78 0-119.108 53.329-119.108 119.11S394.756 612 460.537 612s119.111-53.329 119.111-119.11c0-65.78-53.328-119.109-119.111-119.109zM267.355 312.662c86.861-.005 118.115-86.976 126.297-158.417C403.73 66.237 362.113 0 267.355 0c-94.745 0-136.384 66.232-126.297 154.245 8.191 71.441 39.434 158.424 126.297 158.417zM457.287 348.865c2.795 0 5.572.084 8.33.237-4.134-5.897-8.918-11.098-14.518-15.276-16.691-12.457-38.307-16.544-57.416-24.055-9.302-3.654-17.632-7.284-25.452-11.416-26.393 28.943-60.809 44.084-100.886 44.087-40.067 0-74.478-15.141-100.867-44.087-7.82 4.134-16.152 7.762-25.452 11.416-19.11 7.51-40.725 11.597-57.416 24.055-28.866 21.545-36.325 70.012-42.187 103.071-4.838 27.291-8.086 55.141-9.036 82.862-.735 21.472 9.867 24.483 27.831 30.965 22.492 8.112 45.716 14.135 69.097 19.071 45.153 9.535 91.696 16.862 138.038 17.191 22.455-.16 44.956-1.972 67.322-4.873-16.562-23.996-26.276-53.063-26.276-84.36 0-82.096 66.79-148.885 148.886-148.885z"/></g></svg>
