<svg xmlns="http://www.w3.org/2000/svg" id="Layer_1" data-name="Layer 1" viewBox="0 0 512 512"><path d="M511.056,193.923c-7.439-18.338-23.329-31.318-47.231-38.576-.081-.026-.162-.048-.244-.071-15.344-4.133-26.648-7.5-34.783-9.966a8,8,0,0,0-9.252,3.655L389,201.873l-30.546-52.908a8,8,0,0,0-9.251-3.655c-8.166,2.477-19.5,5.849-34.784,9.966-.082.023-.163.045-.244.071-23.9,7.258-39.792,20.237-47.231,38.576a8,8,0,0,0-.587,2.966L266,267.247a8,8,0,0,0,8,8.041H504a8,8,0,0,0,8-8.041l-.357-70.358A8.02,8.02,0,0,0,511.056,193.923ZM282.041,259.288l.308-60.71c5.831-13.078,17.744-22.21,36.357-27.887,11.954-3.221,21.518-5.991,29.059-8.24l34.307,59.422a8,8,0,0,0,13.856,0l34.307-59.422c7.518,2.243,17.069,5.009,29.06,8.241,18.614,5.677,30.525,14.808,36.356,27.885l.308,60.711ZM330.283,60.144A60.144,60.144,0,1,0,390.427,0,60.212,60.212,0,0,0,330.283,60.144Zm104.287,0A44.144,44.144,0,1,1,390.427,16,44.193,44.193,0,0,1,434.57,60.144ZM8,512H238a8,8,0,0,0,8-8.041l-.357-70.357a8,8,0,0,0-.587-2.966c-7.439-18.34-23.33-31.319-47.231-38.577-.081-.025-.162-.047-.243-.07-15.35-4.135-26.652-7.5-34.783-9.968a8,8,0,0,0-9.252,3.656L123,438.586,92.454,385.677a8,8,0,0,0-9.252-3.656c-8.139,2.471-19.449,5.836-34.784,9.968-.081.023-.162.045-.243.07C24.274,399.317,8.383,412.3.944,430.636A8.02,8.02,0,0,0,.357,433.6L0,503.959A8,8,0,0,0,8,512Zm8.349-76.71c5.832-13.079,17.742-22.21,36.358-27.886,11.983-3.23,21.536-6,29.058-8.241l34.307,59.423a8,8,0,0,0,13.857,0l34.307-59.423c7.321,2.183,17.081,5.013,29.057,8.241,18.615,5.676,30.526,14.807,36.358,27.887L229.959,496H16.041ZM64.284,296.855a60.143,60.143,0,1,0,60.143-60.143A60.211,60.211,0,0,0,64.284,296.855Zm104.286,0a44.143,44.143,0,1,1-44.143-44.143A44.193,44.193,0,0,1,168.57,296.855ZM0,167.2v32.73a8,8,0,0,0,15.723,2.086c5.857-21.688,27.212-38.676,48.615-38.676h74.726v32.864a8,8,0,0,0,12,6.928l109.3-63.1a8,8,0,0,0,0-13.855l-109.3-63.1a8,8,0,0,0-12,6.928v32.864H64.338A64.412,64.412,0,0,0,0,167.2Zm147.064-48.338a8,8,0,0,0,8-8V83.856l85.3,49.247-85.3,49.247V155.342a8,8,0,0,0-8-8H64.338c-14.153,0-28.546,5.362-40.525,15.1A73.845,73.845,0,0,0,16,169.794V167.2a48.394,48.394,0,0,1,48.338-48.338ZM505.052,304.138a8,8,0,0,0-8.775,5.844c-5.857,21.687-27.211,38.675-48.615,38.675H372.936V315.793a8,8,0,0,0-12-6.928l-109.3,63.1a8,8,0,0,0,0,13.855l109.3,63.1a8,8,0,0,0,12-6.928V409.136h74.726A64.412,64.412,0,0,0,512,344.8V312.068A8,8,0,0,0,505.052,304.138ZM496,344.8a48.394,48.394,0,0,1-48.338,48.339H364.936a8,8,0,0,0-8,8v27.008l-85.3-49.248,85.3-49.247v27.008a8,8,0,0,0,8,8h82.726c14.153,0,28.546-5.361,40.525-15.1A73.836,73.836,0,0,0,496,342.206Z" fill="#000000" style="fill: rgb(28, 212, 34);"></path></svg>