<svg version="1.1" id="Capa_1" xmlns="http://www.w3.org/2000/svg" xmlns:xlink="http://www.w3.org/1999/xlink" x="0px" y="0px" viewBox="0 0 512 512" style="enable-background:new 0 0 512 512;" xml:space="preserve"><g><g><circle cx="436.97" cy="437" r="15" fill="#000000" style="fill: rgb(28, 212, 34);"></circle></g></g><g><g><circle cx="376.97" cy="437" r="15" fill="#000000" style="fill: rgb(28, 212, 34);"></circle></g></g><g><g><path d="M467,0H45C20.187,0,0,20.187,0,45v422c0,24.813,20.187,45,45,45h422c24.813,0,45-20.187,45-45V45 C512,20.187,491.813,0,467,0z M482,467c0,8.271-6.729,15-15,15H45c-8.271,0-15-6.729-15-15v-75h452V467z M482,362H30V45 c0-8.271,6.729-15,15-15h422c8.271,0,15,6.729,15,15V362z" fill="#000000" style="fill: rgb(28, 212, 34);"></path></g></g><g><g><path d="M120,92.58V75c0-8.284-6.716-15-15-15s-15,6.716-15,15v17.58C72.541,98.772,60,115.445,60,135s12.541,36.228,30,42.42V317 c0,8.284,6.716,15,15,15s15-6.716,15-15V177.42c17.459-6.192,30-22.865,30-42.42S137.459,98.772,120,92.58z M105,150 c-8.271,0-15-6.729-15-15s6.729-15,15-15s15,6.729,15,15S113.271,150,105,150z" fill="#000000" style="fill: rgb(28, 212, 34);"></path></g></g><g><g><path d="M271,182.58V75c0-8.284-6.716-15-15-15s-15,6.716-15,15v107.58c-17.459,6.192-30,22.865-30,42.42s12.541,36.228,30,42.42 V317c0,8.284,6.716,15,15,15s15-6.716,15-15v-49.58c17.459-6.192,30-22.865,30-42.42S288.459,188.772,271,182.58z M256,240 c-8.271,0-15-6.729-15-15s6.729-15,15-15s15,6.729,15,15S264.271,240,256,240z" fill="#000000" style="fill: rgb(28, 212, 34);"></path></g></g><g><g><path d="M422,92.58V75c0-8.284-6.716-15-15-15s-15,6.716-15,15v17.58c-17.459,6.192-30,22.865-30,42.42s12.541,36.228,30,42.42 V317c0,8.284,6.716,15,15,15s15-6.716,15-15V177.42c17.459-6.192,30-22.865,30-42.42S439.459,98.772,422,92.58z M407,150 c-8.271,0-15-6.729-15-15s6.729-15,15-15s15,6.729,15,15S415.271,150,407,150z" fill="#000000" style="fill: rgb(28, 212, 34);"></path></g></g><g><g><path d="M105,422H75c-8.284,0-15,6.716-15,15s6.716,15,15,15h30c8.284,0,15-6.716,15-15S113.284,422,105,422z" fill="#000000" style="fill: rgb(28, 212, 34);"></path></g></g><g><g><path d="M196,422h-31c-8.284,0-15,6.716-15,15s6.716,15,15,15h31c8.284,0,15-6.716,15-15S204.284,422,196,422z" fill="#000000" style="fill: rgb(28, 212, 34);"></path></g></g><g><g><path d="M286,422h-30c-8.284,0-15,6.716-15,15s6.716,15,15,15h30c8.284,0,15-6.716,15-15S294.284,422,286,422z" fill="#000000" style="fill: rgb(28, 212, 34);"></path></g></g></svg>