<!-- icon666.com - MILLIONS OF FREE VECTOR ICONS --><svg version="1.1" id="Capa_1" xmlns="http://www.w3.org/2000/svg" xmlns:xlink="http://www.w3.org/1999/xlink" x="0px" y="0px" viewBox="0 0 512 512" style="enable-background:new 0 0 512 512;" xml:space="preserve"><rect x="201" y="376" style="fill:#063E8B;" width="110" height="70"></rect><g><rect x="256" y="376" style="fill:#032E68;" width="55" height="70"></rect><rect x="416" y="376" style="fill:#032E68;" width="30" height="35"></rect><rect x="356" y="376" style="fill:#032E68;" width="30" height="35"></rect></g><path style="fill:#0A4EAF;" d="M512,391H0V51h512V391z"></path><path style="fill:#063E8B;" d="M512,391H256V51h256V391z"></path><rect x="30" y="81" style="fill:#E6F9FF;" width="452" height="280"></rect><rect x="256" y="81" style="fill:#CCEFFF;" width="226" height="280"></rect><rect x="156" y="431" style="fill:#0A4EAF;" width="200" height="30"></rect><rect x="256" y="431" style="fill:#063E8B;" width="100" height="30"></rect><circle style="fill:#FFAB15;" cx="131" cy="291" r="20"></circle><rect x="181" y="276" style="fill:#ACE3FC;" width="180" height="30"></rect><circle style="fill:#86F28B;" cx="131" cy="221" r="20"></circle><rect x="181" y="206" style="fill:#ACE3FC;" width="180" height="30"></rect><circle style="fill:#86F28B;" cx="131" cy="151" r="20"></circle><rect x="181" y="136" style="fill:#ACE3FC;" width="180" height="30"></rect><g><rect x="256" y="276" style="fill:#86D6F2;" width="105" height="30"></rect><rect x="256" y="206" style="fill:#86D6F2;" width="105" height="30"></rect><rect x="256" y="136" style="fill:#86D6F2;" width="105" height="30"></rect></g></svg>