<!-- icon666.com - MILLIONS OF FREE VECTOR ICONS --><svg enable-background="new 0 0 48 48" viewBox="0 0 48 48" xmlns="http://www.w3.org/2000/svg"><g id="Line"><path d="m45 15h-42c-.55 0-1 .45-1 1v22c0 .55.45 1 1 1h42c.55 0 1-.45 1-1v-22c0-.55-.45-1-1-1z" fill="#4f4f4f"></path><path d="m45 9h-42c-.55 0-1 .45-1 1v6c0 .55.45 1 1 1h42c.55 0 1-.45 1-1v-6c0-.55-.45-1-1-1z" fill="#badada"></path><g><path d="m9 26c-.85.03-1.35-1.11-.71-1.71 0 0 1.29-1.29 1.29-1.29l-1.29-1.29c-.92-.93.49-2.34 1.41-1.41 0 0 2 2 2 2 .39.39.39 1.02 0 1.41l-2 2c-.19.19-.44.29-.7.29z" fill="#fff"></path></g><g><path d="m18 26h-4c-1.31-.01-1.31-1.99 0-2h4c1.31.01 1.31 1.99 0 2z" fill="#fff"></path></g></g></svg>